<svg xmlns="http://www.w3.org/2000/svg" width="1290" height="390" viewBox="0 0 1290 390" font-family="-apple-system, Segoe UI, Meiryo, sans-serif" font-size="13">
<defs><marker id="arrow" viewBox="0 0 10 10" refX="9" refY="5" markerWidth="8" markerHeight="8" orient="auto-start-reverse"><path d="M0,0 L10,5 L0,10 z" fill="#333"/></marker></defs>
<rect x="0" y="30" width="1290" height="110" fill="#f7f9fc" stroke="#8a99b3"/>
<rect x="0" y="30" width="120" height="110" fill="#d4dff0" stroke="#8a99b3"/>
<text x="60.0" y="85.0" text-anchor="middle" dominant-baseline="middle" font-weight="bold">営業部</text>
<rect x="0" y="140" width="1290" height="110" fill="#eef2f8" stroke="#8a99b3"/>
<rect x="0" y="140" width="120" height="110" fill="#d4dff0" stroke="#8a99b3"/>
<text x="60.0" y="195.0" text-anchor="middle" dominant-baseline="middle" font-weight="bold">倉庫</text>
<rect x="0" y="250" width="1290" height="110" fill="#f7f9fc" stroke="#8a99b3"/>
<rect x="0" y="250" width="120" height="110" fill="#d4dff0" stroke="#8a99b3"/>
<text x="60.0" y="305.0" text-anchor="middle" dominant-baseline="middle" font-weight="bold">経理部</text>
<path d="M285.0,85.0 L310.0,85.0 L310.0,85.0 L335.0,85.0" fill="none" stroke="#333" stroke-width="1.5" marker-end="url(#arrow)"/>
<path d="M475.0,85.0 L500.0,85.0 L500.0,85.0 L525.0,85.0" fill="none" stroke="#333" stroke-width="1.5" marker-end="url(#arrow)"/>
<path d="M665.0,85.0 L690.0,85.0 L690.0,195.0 L715.0,195.0" fill="none" stroke="#333" stroke-width="1.5" marker-end="url(#arrow)"/>
<text x="673.0" y="79.0" fill="#c0392b" font-weight="bold">OK</text>
<path d="M595.0,59.0 L595.0,7.0 L215.0,7.0 L215.0,59.0" fill="none" stroke="#333" stroke-width="1.5" marker-end="url(#arrow)"/>
<text x="577.0" y="53.0" fill="#c0392b" font-weight="bold">NG</text>
<path d="M855.0,195.0 L880.0,195.0 L880.0,305.0 L905.0,305.0" fill="none" stroke="#333" stroke-width="1.5" marker-end="url(#arrow)"/>
<path d="M1045.0,305.0 L1070.0,305.0 L1070.0,305.0 L1095.0,305.0" fill="none" stroke="#333" stroke-width="1.5" marker-end="url(#arrow)"/>
<rect x="145.0" y="59.0" width="140" height="52" rx="26.0" ry="26.0" fill="#fff3cd" stroke="#333"/>
<text x="215.0" y="85.0" text-anchor="middle" dominant-baseline="middle">受注</text>
<rect x="335.0" y="59.0" width="140" height="52" fill="#ffffff" stroke="#333"/>
<text x="405.0" y="85.0" text-anchor="middle" dominant-baseline="middle">注文入力</text>
<polygon points="595.0,59.0 665.0,85.0 595.0,111.0 525.0,85.0" fill="#d1ecf1" stroke="#333"/>
<text x="595.0" y="85.0" text-anchor="middle" dominant-baseline="middle">与信OK?</text>
<rect x="715.0" y="169.0" width="140" height="52" fill="#ffffff" stroke="#333"/>
<text x="785.0" y="195.0" text-anchor="middle" dominant-baseline="middle">出荷</text>
<rect x="905.0" y="279.0" width="140" height="52" fill="#ffffff" stroke="#333"/>
<text x="975.0" y="305.0" text-anchor="middle" dominant-baseline="middle">売上計上</text>
<rect x="1095.0" y="279.0" width="140" height="52" rx="26.0" ry="26.0" fill="#fff3cd" stroke="#333"/>
<text x="1165.0" y="305.0" text-anchor="middle" dominant-baseline="middle">完了</text>
</svg>